<?xml version="1.0" encoding="UTF-8" standalone="no"?>
<!DOCTYPE svg PUBLIC "-//W3C//DTD SVG 1.1//EN" "http://www.w3.org/Graphics/SVG/1.1/DTD/svg11.dtd">
<svg version="1.1" xmlns="http://www.w3.org/2000/svg" xmlns:xlink="http://www.w3.org/1999/xlink" preserveAspectRatio="xMidYMid meet" viewBox="0 0 640 640" width="640" height="640"><defs><path d="M10 10L630 10L630 630L10 630L10 10Z" id="bpr5lKTF8"></path><path d="M620 320C620 485.57 485.57 620 320 620C154.43 620 20 485.57 20 320C20 154.43 154.43 20 320 20C485.57 20 620 154.43 620 320Z" id="b12tStwaIT"></path><path d="M25 461.09L615 461.09L615 538.91L25 538.91L25 461.09Z" id="b1j82w2txt"></path><path d="M33.02 101.09L623.02 101.09L623.02 178.91L33.02 178.91L33.02 101.09Z" id="e1psuNz8QQ"></path><path d="M39.1 467.33L556.57 108.71L600.9 172.67L83.43 531.29L39.1 467.33Z" id="a3yXGTYXHX"></path></defs><g><g><g><use xlink:href="#bpr5lKTF8" opacity="1" fill="#1c1c1c" fill-opacity="1"></use></g><g><use xlink:href="#b12tStwaIT" opacity="1" fill="#26e9a5" fill-opacity="1"></use></g><g><use xlink:href="#b1j82w2txt" opacity="1" fill="#1c1c1c" fill-opacity="1"></use></g><g><use xlink:href="#e1psuNz8QQ" opacity="1" fill="#1c1c1c" fill-opacity="1"></use></g><g><use xlink:href="#a3yXGTYXHX" opacity="1" fill="#1c1c1c" fill-opacity="1"></use></g></g></g></svg>